<svg xmlns="http://www.w3.org/2000/svg" viewBox="0 0 900 600">
  <defs>
    <style>
      text { font-family: 'SF Mono', Menlo, monospace; }
    </style>
  </defs>

  <!-- Background -->
  <rect width="900" height="600" rx="12" fill="#0a0a0a"/>

  <!-- Title -->
  <text x="450" y="36" text-anchor="middle" fill="#e2e8f0" font-size="18" font-weight="bold">Serialization / Deserialization</text>
  <text x="450" y="56" text-anchor="middle" fill="#94a3b8" font-size="12">Encode tree structure into a flat string and reconstruct it</text>

  <!-- Tree (left side) -->
  <text x="200" y="82" text-anchor="middle" fill="#5b6abf" font-size="13" font-weight="bold">Tree</text>

  <!-- Root 1 -->
  <rect x="175" y="92" width="50" height="34" rx="6" fill="#111" stroke="#5b6abf" stroke-width="2"/>
  <text x="200" y="114" text-anchor="middle" fill="#e2e8f0" font-size="14" font-weight="bold">1</text>
  <circle cx="163" cy="97" r="10" fill="#5b6abf" opacity="0.8"/>
  <text x="163" y="101" text-anchor="middle" fill="#fff" font-size="8" font-weight="bold">1</text>

  <line x1="190" y1="126" x2="130" y2="155" stroke="#333" stroke-width="1.5"/>
  <line x1="210" y1="126" x2="270" y2="155" stroke="#333" stroke-width="1.5"/>

  <!-- Node 2 -->
  <rect x="105" y="155" width="50" height="34" rx="6" fill="#111" stroke="#34d399" stroke-width="2"/>
  <text x="130" y="177" text-anchor="middle" fill="#e2e8f0" font-size="14" font-weight="bold">2</text>
  <circle cx="93" cy="160" r="10" fill="#34d399" opacity="0.8"/>
  <text x="93" y="164" text-anchor="middle" fill="#fff" font-size="8" font-weight="bold">2</text>

  <!-- Node 3 -->
  <rect x="245" y="155" width="50" height="34" rx="6" fill="#111" stroke="#34d399" stroke-width="2"/>
  <text x="270" y="177" text-anchor="middle" fill="#e2e8f0" font-size="14" font-weight="bold">3</text>
  <circle cx="303" cy="160" r="10" fill="#34d399" opacity="0.8"/>
  <text x="303" y="164" text-anchor="middle" fill="#fff" font-size="8" font-weight="bold">5</text>

  <!-- Null children of 2 -->
  <line x1="120" y1="189" x2="90" y2="212" stroke="#333" stroke-width="1" stroke-dasharray="3,3"/>
  <line x1="140" y1="189" x2="165" y2="212" stroke="#333" stroke-width="1" stroke-dasharray="3,3"/>
  <text x="82" y="226" text-anchor="middle" fill="#f87171" font-size="9">null</text>
  <circle cx="68" cy="215" r="8" fill="#f87171" opacity="0.5"/>
  <text x="68" y="219" text-anchor="middle" fill="#fff" font-size="7">3</text>
  <text x="172" y="226" text-anchor="middle" fill="#f87171" font-size="9">null</text>
  <circle cx="182" cy="215" r="8" fill="#f87171" opacity="0.5"/>
  <text x="182" y="219" text-anchor="middle" fill="#fff" font-size="7">4</text>

  <!-- Children of 3 -->
  <line x1="260" y1="189" x2="235" y2="212" stroke="#333" stroke-width="1.5"/>
  <line x1="280" y1="189" x2="305" y2="212" stroke="#333" stroke-width="1.5"/>

  <rect x="215" y="212" width="40" height="28" rx="6" fill="#111" stroke="#fbbf24" stroke-width="1.5"/>
  <text x="235" y="232" text-anchor="middle" fill="#e2e8f0" font-size="12">4</text>
  <circle cx="205" cy="217" r="8" fill="#fbbf24" opacity="0.8"/>
  <text x="205" y="221" text-anchor="middle" fill="#fff" font-size="7">6</text>

  <rect x="285" y="212" width="40" height="28" rx="6" fill="#111" stroke="#fbbf24" stroke-width="1.5"/>
  <text x="305" y="232" text-anchor="middle" fill="#e2e8f0" font-size="12">5</text>
  <circle cx="333" cy="217" r="8" fill="#fbbf24" opacity="0.8"/>
  <text x="333" y="221" text-anchor="middle" fill="#fff" font-size="7">8</text>

  <!-- Null children of 4 and 5 -->
  <text x="225" y="255" text-anchor="middle" fill="#f87171" font-size="8">null null</text>
  <text x="305" y="255" text-anchor="middle" fill="#f87171" font-size="8">null null</text>

  <!-- Double arrow -->
  <text x="415" y="175" text-anchor="middle" fill="#a78bfa" font-size="22">&#x27F7;</text>
  <text x="415" y="195" text-anchor="middle" fill="#a78bfa" font-size="10">serialize /</text>
  <text x="415" y="207" text-anchor="middle" fill="#a78bfa" font-size="10">deserialize</text>

  <!-- Serialized string (right side) -->
  <text x="660" y="82" text-anchor="middle" fill="#34d399" font-size="13" font-weight="bold">Serialized String (Preorder)</text>

  <rect x="475" y="92" width="385" height="48" rx="6" fill="#111" stroke="#34d399" stroke-width="1"/>
  <text x="495" y="114" fill="#5b6abf" font-size="12" font-weight="bold">1</text>
  <text x="510" y="114" fill="#333" font-size="12">,</text>
  <text x="520" y="114" fill="#34d399" font-size="12" font-weight="bold">2</text>
  <text x="535" y="114" fill="#333" font-size="12">,</text>
  <text x="545" y="114" fill="#f87171" font-size="11">null</text>
  <text x="572" y="114" fill="#333" font-size="12">,</text>
  <text x="582" y="114" fill="#f87171" font-size="11">null</text>
  <text x="609" y="114" fill="#333" font-size="12">,</text>
  <text x="619" y="114" fill="#34d399" font-size="12" font-weight="bold">3</text>
  <text x="634" y="114" fill="#333" font-size="12">,</text>
  <text x="644" y="114" fill="#fbbf24" font-size="12" font-weight="bold">4</text>
  <text x="659" y="114" fill="#333" font-size="12">,</text>
  <text x="669" y="114" fill="#f87171" font-size="10">n</text>
  <text x="683" y="114" fill="#333" font-size="12">,</text>
  <text x="693" y="114" fill="#f87171" font-size="10">n</text>
  <text x="707" y="114" fill="#333" font-size="12">,</text>
  <text x="717" y="114" fill="#fbbf24" font-size="12" font-weight="bold">5</text>
  <text x="732" y="114" fill="#333" font-size="12">,</text>
  <text x="742" y="114" fill="#f87171" font-size="10">n</text>
  <text x="756" y="114" fill="#333" font-size="12">,</text>
  <text x="766" y="114" fill="#f87171" font-size="10">n</text>
  <text x="495" y="132" fill="#94a3b8" font-size="9">visit order: 1  2  3  4  5  6  7  8  9  10  11</text>

  <!-- Deserialization process -->
  <rect x="475" y="155" width="385" height="120" rx="6" fill="#111" stroke="#222" stroke-width="1"/>
  <text x="495" y="177" fill="#a78bfa" font-size="12" font-weight="bold">Deserialize: consume tokens left to right</text>
  <text x="495" y="197" fill="#e2e8f0" font-size="10">"1" -> create node(1), recurse left</text>
  <text x="495" y="213" fill="#e2e8f0" font-size="10">  "2" -> create node(2), recurse left</text>
  <text x="495" y="229" fill="#f87171" font-size="10">    "null" -> return null (left child done)</text>
  <text x="495" y="245" fill="#f87171" font-size="10">    "null" -> return null (right child done)</text>
  <text x="495" y="261" fill="#e2e8f0" font-size="10">  back to node(1), recurse right -> "3" -> ...</text>

  <!-- Key concepts box -->
  <rect x="60" y="300" width="780" height="100" rx="8" fill="#111" stroke="#222" stroke-width="1"/>
  <text x="80" y="326" fill="#a78bfa" font-size="14" font-weight="bold">Why This Works</text>

  <rect x="80" y="340" width="230" height="50" rx="6" fill="#0a0a0a" stroke="#34d399" stroke-width="1"/>
  <text x="90" y="358" fill="#34d399" font-size="10" font-weight="bold">Nulls encode structure</text>
  <text x="90" y="373" fill="#e2e8f0" font-size="9">Without nulls: [1,2,3] could be many trees</text>
  <text x="90" y="385" fill="#e2e8f0" font-size="9">With nulls: unambiguous reconstruction</text>

  <rect x="330" y="340" width="240" height="50" rx="6" fill="#0a0a0a" stroke="#5b6abf" stroke-width="1"/>
  <text x="340" y="358" fill="#5b6abf" font-size="10" font-weight="bold">Preorder = root first</text>
  <text x="340" y="373" fill="#e2e8f0" font-size="9">First token is always the root</text>
  <text x="340" y="385" fill="#e2e8f0" font-size="9">Recursion naturally splits left/right</text>

  <rect x="590" y="340" width="230" height="50" rx="6" fill="#0a0a0a" stroke="#fbbf24" stroke-width="1"/>
  <text x="600" y="358" fill="#fbbf24" font-size="10" font-weight="bold">Subtree fingerprinting</text>
  <text x="600" y="373" fill="#e2e8f0" font-size="9">Serialize each subtree -> hashmap</text>
  <text x="600" y="385" fill="#e2e8f0" font-size="9">Same string = duplicate subtree (652)</text>

  <!-- Applications -->
  <rect x="60" y="420" width="780" height="110" rx="8" fill="#111" stroke="#222" stroke-width="1"/>
  <text x="80" y="448" fill="#a78bfa" font-size="14" font-weight="bold">Pattern Applications</text>

  <rect x="80" y="460" width="230" height="58" rx="6" fill="#0a0a0a" stroke="#5b6abf" stroke-width="1"/>
  <text x="90" y="480" fill="#5b6abf" font-size="11" font-weight="bold">297: Serialize/Deserialize</text>
  <text x="90" y="496" fill="#94a3b8" font-size="9">Full encode / decode with null markers</text>
  <text x="90" y="510" fill="#94a3b8" font-size="9">Token iterator for O(n) reconstruction</text>

  <rect x="330" y="460" width="230" height="58" rx="6" fill="#0a0a0a" stroke="#34d399" stroke-width="1"/>
  <text x="340" y="480" fill="#34d399" font-size="11" font-weight="bold">572: Subtree of Another</text>
  <text x="340" y="496" fill="#94a3b8" font-size="9">Serialize both -> substring check</text>
  <text x="340" y="510" fill="#94a3b8" font-size="9">Or: recursive match at every node</text>

  <rect x="580" y="460" width="240" height="58" rx="6" fill="#0a0a0a" stroke="#fbbf24" stroke-width="1"/>
  <text x="590" y="480" fill="#fbbf24" font-size="11" font-weight="bold">652: Duplicate Subtrees</text>
  <text x="590" y="496" fill="#94a3b8" font-size="9">Postorder serialize each subtree</text>
  <text x="590" y="510" fill="#94a3b8" font-size="9">Hashmap: serialized -> count -> find dups</text>

  <!-- Legend -->
  <rect x="60" y="548" width="780" height="35" rx="6" fill="#111" stroke="#222" stroke-width="1"/>
  <circle cx="90" cy="566" r="8" fill="#5b6abf" opacity="0.8"/>
  <text x="105" y="570" fill="#94a3b8" font-size="9">Visit order</text>
  <rect x="170" y="559" width="14" height="14" rx="3" fill="#111" stroke="#5b6abf" stroke-width="1"/>
  <text x="190" y="570" fill="#94a3b8" font-size="9">Root</text>
  <rect x="230" y="559" width="14" height="14" rx="3" fill="#111" stroke="#34d399" stroke-width="1"/>
  <text x="250" y="570" fill="#94a3b8" font-size="9">Internal</text>
  <rect x="310" y="559" width="14" height="14" rx="3" fill="#111" stroke="#fbbf24" stroke-width="1"/>
  <text x="330" y="570" fill="#94a3b8" font-size="9">Leaf</text>
  <circle cx="385" cy="566" r="8" fill="#f87171" opacity="0.5"/>
  <text x="400" y="570" fill="#94a3b8" font-size="9">Null marker</text>
</svg>
